<?xml version="1.0" standalone="no"?>
<!DOCTYPE svg PUBLIC "-//W3C//DTD SVG 20010904//EN"
 "http://www.w3.org/TR/2001/REC-SVG-20010904/DTD/svg10.dtd">
<svg version="1.0" xmlns="http://www.w3.org/2000/svg"
 width="512.000000pt" height="512.000000pt" viewBox="0 0 512.000000 512.000000"
 preserveAspectRatio="xMidYMid meet">

<g transform="translate(0.000000,512.000000) scale(0.100000,-0.100000)"
fill="#000000" stroke="none">
<path d="M1865 4323 c-47 -10 -1401 -599 -1427 -621 -62 -52 -58 46 -58 -1435
l0 -1354 23 -34 c35 -52 82 -79 138 -79 41 0 147 42 699 280 l651 280 649
-280 c515 -222 659 -280 693 -280 34 0 184 61 727 295 377 162 696 303 710
313 14 11 35 34 48 52 l22 33 0 1357 0 1357 -23 34 c-35 52 -82 79 -138 79
-41 0 -146 -42 -697 -280 l-649 -280 -647 279 c-356 153 -659 281 -674 283
-15 3 -36 3 -47 1z m-147 -1550 l-3 -1117 -495 -213 c-272 -117 -496 -213
-497 -213 -2 0 -3 503 -3 1118 l0 1117 493 212 c270 116 495 212 500 212 4 1
6 -502 5 -1116z m852 902 l490 -210 0 -1117 c0 -615 -1 -1118 -3 -1118 -2 0
-226 96 -498 213 l-494 213 -3 1118 c-1 794 1 1117 9 1114 6 -2 230 -98 499
-213z m1830 -902 l0 -1118 -483 -207 c-265 -114 -490 -210 -500 -214 -16 -6
-17 50 -15 1111 l3 1118 490 212 c270 117 493 213 498 214 4 1 7 -502 7 -1116z"/>
</g>
</svg>
