<?xml version="1.0" standalone="no"?>
<!DOCTYPE svg PUBLIC "-//W3C//DTD SVG 20010904//EN"
 "http://www.w3.org/TR/2001/REC-SVG-20010904/DTD/svg10.dtd">
<svg version="1.0" xmlns="http://www.w3.org/2000/svg"
 width="512.000000pt" height="512.000000pt" viewBox="0 0 512.000000 512.000000"
 preserveAspectRatio="xMidYMid meet">

<g transform="translate(0.000000,512.000000) scale(0.100000,-0.100000)"
fill="#000000" stroke="none">
<path d="M2458 4469 c-20 -5 -434 -207 -918 -449 -957 -479 -952 -476 -1005
-584 -72 -147 -37 -342 79 -443 26 -22 375 -202 931 -480 961 -480 930 -467
1060 -451 52 6 176 65 944 449 841 419 887 444 941 498 76 75 103 144 104 261
1 75 -3 93 -31 152 -61 129 -31 112 -1002 597 -561 281 -895 442 -929 450 -61
13 -121 13 -174 0z m952 -734 c555 -278 853 -432 860 -445 6 -11 8 -30 5 -41
-5 -14 -238 -136 -856 -444 -467 -234 -860 -425 -874 -425 -35 0 -1699 834
-1718 861 -10 13 -13 29 -8 43 5 16 215 126 857 448 467 235 857 427 867 427
9 1 399 -190 867 -424z"/>
<path d="M537 2536 c-77 -28 -112 -81 -105 -163 3 -31 13 -65 24 -81 14 -20
270 -153 969 -504 523 -263 981 -487 1019 -499 54 -17 83 -20 135 -16 63 6
115 30 1044 494 676 337 986 497 1003 516 34 40 46 94 33 142 -22 77 -115 136
-185 116 -16 -4 -455 -222 -976 -482 l-948 -474 -957 477 c-527 263 -971 480
-988 482 -16 3 -47 -1 -68 -8z"/>
<path d="M506 1737 c-94 -53 -103 -188 -18 -258 16 -13 462 -240 991 -504
l962 -480 104 0 105 0 984 492 c915 457 985 495 1007 529 64 104 -3 232 -125
242 -50 3 -68 -5 -998 -472 -521 -262 -956 -476 -967 -476 -12 0 -448 214
-971 475 -1038 519 -992 499 -1074 452z"/>
</g>
</svg>
