<svg version="1.1" id="Layer_1" xmlns="http://www.w3.org/2000/svg" xmlns:xlink="http://www.w3.org/1999/xlink" x="0px" y="0px"
	 width="100%" viewBox="0 0 680 726" enable-background="new 0 0 680 726" xml:space="preserve">
<path fill="#333333" opacity="1.000000" stroke="none" 
	d="
M364.000000,727.000000 
	C242.666672,727.000000 121.833336,727.000000 1.000000,727.000000 
	C1.000000,485.000000 1.000000,243.000000 1.000000,1.000000 
	C227.666672,1.000000 454.333344,1.000000 681.000000,1.000000 
	C681.000000,243.000000 681.000000,485.000000 681.000000,727.000000 
	C575.500000,727.000000 470.000000,727.000000 364.000000,727.000000 
M616.059509,492.549988 
	C646.668945,473.868073 662.274658,446.476685 662.855774,410.744110 
	C663.237732,387.255127 662.928040,363.754944 662.928040,340.259766 
	C662.928040,255.610504 662.973450,170.961227 662.909241,86.312012 
	C662.875916,42.392315 624.388977,8.779466 582.058472,16.310719 
	C533.260254,24.992668 484.602661,34.464649 435.882446,43.585487 
	C392.233551,51.756939 348.633240,60.201603 304.917236,67.997093 
	C266.730896,74.806519 243.084579,102.401146 243.071564,141.335922 
	C243.059082,178.661575 243.068863,215.987228 243.068863,253.312881 
	C243.068863,255.100266 243.068878,256.887634 243.068878,257.388763 
	C259.256744,263.908844 274.538055,270.063782 290.018005,276.298706 
	C290.018005,262.715637 290.018005,248.928909 290.018005,234.960205 
	C398.767578,214.610428 507.239777,194.312546 615.923706,173.975037 
	C615.923706,226.564804 615.923706,278.622101 615.923706,330.608490 
	C615.521973,330.725708 615.325684,330.856049 615.208130,330.804993 
	C614.604431,330.543121 614.011597,330.252167 613.431946,329.939728 
	C594.620667,319.800262 574.726990,316.439453 553.578430,319.881775 
	C493.512604,329.658600 458.563721,396.995270 485.292938,451.631073 
	C509.414215,500.936096 566.101013,518.937073 616.059509,492.549988 
M289.832245,332.499908 
	C289.832245,379.328339 289.853180,426.156769 289.800690,472.985138 
	C289.795288,477.804871 289.556702,482.644531 289.079803,487.440491 
	C283.988190,538.642151 233.509094,577.236389 182.842300,568.727539 
	C132.591385,560.288452 99.452339,517.600525 103.858498,466.984589 
	C108.673111,411.676483 163.496246,372.418427 217.477356,385.904114 
	C226.072632,388.051392 234.293823,391.696075 242.765472,394.675720 
	C242.765472,351.357971 242.765472,307.681183 242.765472,264.031525 
	C241.867905,263.697235 241.264648,263.386017 240.623978,263.246216 
	C195.857208,253.477615 152.966400,258.764404 113.256157,281.726562 
	C55.959370,314.858002 24.542646,365.401154 19.052229,431.085449 
	C14.207979,489.039307 33.049721,539.216248 73.862106,580.793335 
	C103.859550,611.352722 134.153961,641.621033 164.381088,671.954285 
	C176.460709,684.076355 188.715240,696.024170 201.071548,708.230469 
	C201.968460,707.398621 202.959198,706.541321 203.881302,705.615662 
	C245.395844,663.943604 287.289246,622.640076 328.307007,580.484497 
	C370.683899,536.932068 388.303802,484.140228 381.626038,423.915894 
	C376.400513,376.788574 355.558380,336.952972 320.317383,305.093384 
	C311.181366,296.834015 300.773285,289.981689 290.949524,282.483093 
	C290.577087,282.853088 290.204681,283.223083 289.832245,283.593079 
	C289.832245,299.562012 289.832245,315.530945 289.832245,332.499908 
z"/>
<path fill="#FEFEFE" opacity="1.000000" stroke="none" 
	d="
M615.755920,492.756714 
	C566.101013,518.937073 509.414215,500.936096 485.292938,451.631073 
	C458.563721,396.995270 493.512604,329.658600 553.578430,319.881775 
	C574.726990,316.439453 594.620667,319.800262 613.431946,329.939728 
	C614.011597,330.252167 614.604431,330.543121 615.208130,330.804993 
	C615.325684,330.856049 615.521973,330.725708 615.923706,330.608490 
	C615.923706,278.622101 615.923706,226.564804 615.923706,173.975037 
	C507.239777,194.312546 398.767578,214.610428 290.018005,234.960205 
	C290.018005,248.928909 290.018005,262.715637 290.018005,276.298706 
	C274.538055,270.063782 259.256744,263.908844 243.068878,257.388763 
	C243.068878,256.887634 243.068863,255.100266 243.068863,253.312881 
	C243.068863,215.987228 243.059082,178.661575 243.071564,141.335922 
	C243.084579,102.401146 266.730896,74.806519 304.917236,67.997093 
	C348.633240,60.201603 392.233551,51.756939 435.882446,43.585487 
	C484.602661,34.464649 533.260254,24.992668 582.058472,16.310719 
	C624.388977,8.779466 662.875916,42.392315 662.909241,86.312012 
	C662.973450,170.961227 662.928040,255.610504 662.928040,340.259766 
	C662.928040,363.754944 663.237732,387.255127 662.855774,410.744110 
	C662.274658,446.476685 646.668945,473.868073 615.755920,492.756714 
z"/>
<path fill="#FEFEFE" opacity="1.000000" stroke="none" 
	d="
M289.832245,331.999878 
	C289.832245,315.530945 289.832245,299.562012 289.832245,283.593079 
	C290.204681,283.223083 290.577087,282.853088 290.949524,282.483093 
	C300.773285,289.981689 311.181366,296.834015 320.317383,305.093384 
	C355.558380,336.952972 376.400513,376.788574 381.626038,423.915894 
	C388.303802,484.140228 370.683899,536.932068 328.307007,580.484497 
	C287.289246,622.640076 245.395844,663.943604 203.881302,705.615662 
	C202.959198,706.541321 201.968460,707.398621 201.071548,708.230469 
	C188.715240,696.024170 176.460709,684.076355 164.381088,671.954285 
	C134.153961,641.621033 103.859550,611.352722 73.862106,580.793335 
	C33.049721,539.216248 14.207979,489.039307 19.052229,431.085449 
	C24.542646,365.401154 55.959370,314.858002 113.256157,281.726562 
	C152.966400,258.764404 195.857208,253.477615 240.623978,263.246216 
	C241.264648,263.386017 241.867905,263.697235 242.765472,264.031525 
	C242.765472,307.681183 242.765472,351.357971 242.765472,394.675720 
	C234.293823,391.696075 226.072632,388.051392 217.477356,385.904114 
	C163.496246,372.418427 108.673111,411.676483 103.858498,466.984589 
	C99.452339,517.600525 132.591385,560.288452 182.842300,568.727539 
	C233.509094,577.236389 283.988190,538.642151 289.079803,487.440491 
	C289.556702,482.644531 289.795288,477.804871 289.800690,472.985138 
	C289.853180,426.156769 289.832245,379.328339 289.832245,331.999878 
z"/>
</svg>